<svg xmlns="http://www.w3.org/2000/svg" xmlns:xlink="http://www.w3.org/1999/xlink" width="54" zoomAndPan="magnify" viewBox="0 0 40.5 36.000001" height="48" preserveAspectRatio="xMidYMid meet" version="1.0"><defs><g/><clipPath id="6a270dec68"><path d="M 0.304688 1 L 39.710938 1 L 39.710938 34 L 0.304688 34 Z M 0.304688 1 " clip-rule="nonzero"/></clipPath><clipPath id="b69f435c6a"><path d="M 1.035156 0.609375 L 38.308594 0.609375 L 38.308594 31.671875 L 1.035156 31.671875 Z M 1.035156 0.609375 " clip-rule="nonzero"/></clipPath><clipPath id="de7e8ad746"><path d="M 37 26 L 39.710938 26 L 39.710938 29 L 37 29 Z M 37 26 " clip-rule="nonzero"/></clipPath><clipPath id="704df7516b"><rect x="0" width="40" y="0" height="33"/></clipPath></defs><g clip-path="url(#6a270dec68)"><g transform="matrix(1, 0, 0, 1, 0.000000000000000111, 1)"><g clip-path="url(#704df7516b)"><g clip-path="url(#b69f435c6a)"><path fill="#767579" d="M 8.132812 1.640625 C 8.605469 1.539062 9.082031 1.480469 9.5625 1.464844 L 27.195312 0.769531 C 30.707031 0.640625 34.824219 0.769531 36.875 3.636719 C 38.164062 5.4375 38.226562 7.796875 38.226562 10.007812 L 38.28125 23.523438 C 38.28125 25.726562 38.214844 28.160156 36.71875 29.777344 C 35.101562 31.523438 32.4375 31.679688 30.054688 31.710938 L 11.859375 31.949219 C 9.6875 31.980469 7.355469 31.949219 5.597656 30.667969 C 3.839844 29.390625 3.132812 27.113281 2.640625 25 C 1.460938 19.886719 1.035156 14.710938 1.363281 9.46875 C 1.421875 8.539062 1.628906 7.636719 1.984375 6.773438 C 2.335938 5.910156 2.820312 5.121094 3.429688 4.414062 C 4.042969 3.707031 4.75 3.117188 5.554688 2.640625 C 6.359375 2.167969 7.21875 1.832031 8.132812 1.640625 Z M 8.132812 1.640625 " fill-opacity="1" fill-rule="nonzero"/></g><g fill="#ffffff" fill-opacity="1"><g transform="translate(14.277123, 27.907262)"><g><path d="M 0.953125 0 L 0.953125 -0.25 C 1.234375 -0.332031 1.425781 -0.515625 1.53125 -0.796875 C 1.644531 -1.085938 1.703125 -1.613281 1.703125 -2.375 L 1.703125 -10.703125 C 1.703125 -11.472656 1.644531 -12 1.53125 -12.28125 C 1.425781 -12.5625 1.234375 -12.742188 0.953125 -12.828125 L 0.953125 -13.078125 L 9.75 -13.078125 L 9.921875 -11.109375 L 9.703125 -11.046875 C 9.398438 -11.671875 9.015625 -12.113281 8.546875 -12.375 C 8.085938 -12.632812 7.414062 -12.765625 6.53125 -12.765625 L 3.234375 -12.765625 L 3.234375 -7.296875 L 5.453125 -7.296875 C 6.160156 -7.296875 6.707031 -7.34375 7.09375 -7.4375 C 7.488281 -7.53125 7.773438 -7.671875 7.953125 -7.859375 C 8.140625 -8.046875 8.269531 -8.273438 8.34375 -8.546875 L 8.578125 -8.546875 L 8.578125 -5.71875 L 8.34375 -5.71875 C 8.269531 -6 8.140625 -6.234375 7.953125 -6.421875 C 7.773438 -6.609375 7.488281 -6.75 7.09375 -6.84375 C 6.707031 -6.945312 6.160156 -7 5.453125 -7 L 3.234375 -7 L 3.234375 -2.375 C 3.234375 -1.613281 3.285156 -1.085938 3.390625 -0.796875 C 3.492188 -0.515625 3.691406 -0.332031 3.984375 -0.25 L 3.984375 0 Z M 0.953125 0 "/></g></g></g><g fill="#ffffff" fill-opacity="1"><g transform="translate(24.711043, 27.907262)"><g><path d="M 10.453125 0.125 C 9.984375 0.125 9.609375 0.0078125 9.328125 -0.21875 C 9.054688 -0.445312 8.816406 -0.78125 8.609375 -1.21875 C 8.410156 -1.664062 8.171875 -2.210938 7.890625 -2.859375 C 7.617188 -3.503906 7.390625 -4.066406 7.203125 -4.546875 C 7.015625 -5.035156 6.8125 -5.441406 6.59375 -5.765625 C 6.382812 -6.085938 6.109375 -6.328125 5.765625 -6.484375 C 5.429688 -6.648438 4.984375 -6.734375 4.421875 -6.734375 L 3.234375 -6.734375 L 3.234375 -2.375 C 3.234375 -1.613281 3.285156 -1.085938 3.390625 -0.796875 C 3.492188 -0.515625 3.691406 -0.332031 3.984375 -0.25 L 3.984375 0 L 0.953125 0 L 0.953125 -0.25 C 1.234375 -0.332031 1.425781 -0.515625 1.53125 -0.796875 C 1.644531 -1.085938 1.703125 -1.613281 1.703125 -2.375 L 1.703125 -10.703125 C 1.703125 -11.472656 1.644531 -12 1.53125 -12.28125 C 1.425781 -12.5625 1.234375 -12.742188 0.953125 -12.828125 L 0.953125 -13.078125 L 4.625 -13.078125 C 5.894531 -13.078125 6.882812 -12.945312 7.59375 -12.6875 C 8.300781 -12.4375 8.800781 -12.09375 9.09375 -11.65625 C 9.394531 -11.21875 9.546875 -10.71875 9.546875 -10.15625 C 9.546875 -9.28125 9.234375 -8.535156 8.609375 -7.921875 C 7.984375 -7.304688 7.0625 -6.929688 5.84375 -6.796875 C 6.414062 -6.722656 6.878906 -6.59375 7.234375 -6.40625 C 7.597656 -6.226562 7.898438 -5.988281 8.140625 -5.6875 C 8.378906 -5.382812 8.59375 -5.015625 8.78125 -4.578125 C 8.96875 -4.140625 9.171875 -3.632812 9.390625 -3.0625 C 9.691406 -2.3125 9.941406 -1.726562 10.140625 -1.3125 C 10.347656 -0.90625 10.539062 -0.617188 10.71875 -0.453125 C 10.894531 -0.285156 11.085938 -0.203125 11.296875 -0.203125 C 11.359375 -0.203125 11.410156 -0.203125 11.453125 -0.203125 C 11.492188 -0.203125 11.539062 -0.207031 11.59375 -0.21875 L 11.59375 0 C 11.457031 0.0507812 11.28125 0.0820312 11.0625 0.09375 C 10.84375 0.113281 10.640625 0.125 10.453125 0.125 Z M 3.234375 -7.015625 L 4.796875 -7.015625 C 5.867188 -7.015625 6.660156 -7.265625 7.171875 -7.765625 C 7.691406 -8.273438 7.953125 -8.929688 7.953125 -9.734375 C 7.953125 -10.285156 7.820312 -10.789062 7.5625 -11.25 C 7.3125 -11.71875 6.898438 -12.09375 6.328125 -12.375 C 5.765625 -12.65625 5.023438 -12.796875 4.109375 -12.796875 C 3.972656 -12.796875 3.828125 -12.789062 3.671875 -12.78125 C 3.523438 -12.769531 3.378906 -12.757812 3.234375 -12.75 Z M 3.234375 -7.015625 "/></g></g></g><g clip-path="url(#de7e8ad746)"><g fill="#ffffff" fill-opacity="1"><g transform="translate(36.134229, 27.907262)"><g><path d="M 2.09375 0.125 C 1.832031 0.125 1.601562 0.0234375 1.40625 -0.171875 C 1.21875 -0.367188 1.125 -0.601562 1.125 -0.875 C 1.125 -1.144531 1.21875 -1.378906 1.40625 -1.578125 C 1.601562 -1.773438 1.832031 -1.875 2.09375 -1.875 C 2.351562 -1.875 2.578125 -1.773438 2.765625 -1.578125 C 2.953125 -1.378906 3.046875 -1.144531 3.046875 -0.875 C 3.046875 -0.601562 2.953125 -0.367188 2.765625 -0.171875 C 2.578125 0.0234375 2.351562 0.125 2.09375 0.125 Z M 2.09375 0.125 "/></g></g></g></g></g></g></g></svg>